<?xml version="1.0" encoding="UTF-8"?>
<svg xmlns="http://www.w3.org/2000/svg" xmlns:xlink="http://www.w3.org/1999/xlink" width="172px" height="172px" viewBox="0 0 172 172" version="1.1">
<g id="surface1">
<path style=" stroke:none;fill-rule:nonzero;fill:rgb(0%,0%,0%);fill-opacity:1;" d="M 119.496094 52.136719 L 141.210938 52.136719 L 141.210938 57.554688 L 124.9375 57.554688 L 124.9375 79.292969 L 119.496094 79.292969 Z M 119.496094 52.136719 "/>
<path style=" stroke:none;fill-rule:nonzero;fill:rgb(0%,0%,0%);fill-opacity:1;" d="M 32.59375 52.136719 L 32.59375 43.085938 L 0 43.085938 L 0 88.34375 L 32.59375 88.34375 Z M 27.15625 79.292969 L 21.714844 79.292969 L 21.714844 57.554688 L 10.859375 57.554688 L 10.859375 79.292969 L 5.441406 79.292969 L 5.441406 52.136719 L 27.175781 52.136719 L 27.175781 79.292969 Z M 27.15625 79.292969 "/>
<path style=" stroke:none;fill-rule:nonzero;fill:rgb(0%,0%,0%);fill-opacity:1;" d="M 36.207031 79.292969 L 63.382812 79.292969 L 63.382812 52.136719 L 36.207031 52.136719 Z M 41.644531 57.554688 L 57.941406 57.554688 L 57.941406 73.851562 L 41.644531 73.851562 Z M 41.644531 57.554688 "/>
<path style=" stroke:none;fill-rule:nonzero;fill:rgb(0%,0%,0%);fill-opacity:1;" d="M 166.558594 52.136719 L 166.558594 73.875 L 150.261719 73.875 L 150.261719 52.136719 L 144.824219 52.136719 L 144.824219 79.292969 L 166.558594 79.292969 L 166.558594 82.902344 L 36.207031 82.902344 L 36.207031 88.34375 L 172 88.34375 L 172 52.136719 Z M 166.558594 52.136719 "/>
<path style=" stroke:none;fill-rule:nonzero;fill:rgb(0%,0%,0%);fill-opacity:1;" d="M 59.664062 100.125 L 76.109375 100.125 L 76.109375 104.230469 L 63.769531 104.230469 L 63.769531 120.699219 L 59.664062 120.699219 Z M 59.664062 100.125 "/>
<path style=" stroke:none;fill-rule:nonzero;fill:rgb(0%,0%,0%);fill-opacity:1;" d="M 78.863281 120.699219 L 99.414062 120.699219 L 99.414062 100.125 L 78.839844 100.125 L 78.839844 120.699219 Z M 82.96875 104.230469 L 95.308594 104.230469 L 95.308594 116.574219 L 82.96875 116.574219 Z M 82.96875 104.230469 "/>
<path style=" stroke:none;fill-rule:nonzero;fill:rgb(0%,0%,0%);fill-opacity:1;" d="M 36.421875 100.125 L 36.421875 128.914062 L 40.527344 128.914062 L 40.527344 120.699219 L 56.996094 120.699219 L 56.996094 100.125 Z M 52.890625 116.59375 L 40.550781 116.59375 L 40.550781 104.253906 L 52.890625 104.253906 Z M 52.890625 116.59375 "/>
<path style=" stroke:none;fill-rule:nonzero;fill:rgb(0%,0%,0%);fill-opacity:1;" d="M 151.8125 116.574219 L 140.566406 116.574219 L 140.566406 104.253906 L 156.972656 104.253906 L 156.972656 100.167969 L 136.460938 100.167969 L 136.460938 120.65625 L 156.972656 120.65625 L 156.972656 116.574219 Z M 151.8125 116.574219 "/>
<path style=" stroke:none;fill-rule:nonzero;fill:rgb(0%,0%,0%);fill-opacity:1;" d="M 133.730469 112.507812 L 133.730469 100.167969 L 113.15625 100.167969 L 113.15625 120.722656 L 133.730469 120.722656 L 133.730469 116.617188 L 117.261719 116.617188 L 117.261719 112.507812 Z M 117.261719 104.273438 L 129.601562 104.273438 L 129.601562 108.382812 L 117.261719 108.382812 Z M 117.261719 104.273438 "/>
<path style=" stroke:none;fill-rule:nonzero;fill:rgb(0%,0%,0%);fill-opacity:1;" d="M 167.9375 116.550781 L 167.9375 104.210938 L 172 104.210938 L 172 100.082031 L 167.9375 100.082031 L 167.9375 93.246094 L 163.828125 93.246094 L 163.828125 100.082031 L 159.703125 100.082031 L 159.703125 104.210938 L 163.828125 104.210938 L 163.828125 120.65625 L 172 120.65625 L 172 116.550781 Z M 167.9375 116.550781 "/>
<path style=" stroke:none;fill-rule:nonzero;fill:rgb(0%,0%,0%);fill-opacity:1;" d="M 106.296875 93.265625 L 110.402344 93.265625 L 110.402344 97.375 L 106.296875 97.375 Z M 106.296875 93.265625 "/>
<path style=" stroke:none;fill-rule:nonzero;fill:rgb(0%,0%,0%);fill-opacity:1;" d="M 106.296875 104.230469 L 106.296875 116.59375 L 102.167969 116.59375 L 102.167969 120.699219 L 110.402344 120.699219 L 110.402344 101.5 L 106.296875 101.5 Z M 106.296875 104.230469 "/>
<path style=" stroke:none;fill-rule:nonzero;fill:rgb(0%,0%,0%);fill-opacity:1;" d="M 106.296875 93.265625 L 110.402344 93.265625 L 110.402344 97.375 L 106.296875 97.375 Z M 106.296875 93.265625 "/>
<path style=" stroke:none;fill-rule:nonzero;fill:rgb(0%,0%,0%);fill-opacity:1;" d="M 77.851562 52.136719 L 77.851562 43.085938 L 72.410156 43.085938 L 72.410156 52.136719 L 66.972656 52.136719 L 66.972656 57.578125 L 72.410156 57.578125 L 72.410156 79.292969 L 83.289062 79.292969 L 83.289062 73.851562 L 77.851562 73.851562 L 77.851562 57.554688 L 110.445312 57.554688 L 110.445312 62.996094 L 88.710938 62.996094 L 88.710938 79.292969 L 115.863281 79.292969 L 115.863281 52.117188 L 77.851562 52.117188 Z M 110.445312 73.851562 L 94.148438 73.851562 L 94.148438 68.414062 L 110.445312 68.414062 Z M 110.445312 73.851562 "/>
</g>
</svg>
