<svg width="75" height="114" viewBox="0 0 75 114" fill="none" xmlns="http://www.w3.org/2000/svg">
<rect x="12.5" y="31.5" width="48" height="54.6522" rx="10.5" fill="#FFD500" stroke="black" stroke-width="3"/>
<path fill-rule="evenodd" clip-rule="evenodd" d="M29.7467 47.8942L31.4058 49.7696L35.2731 54.1413L36.9321 56.0168L38.5911 54.1413L42.4584 49.7696L44.1175 47.8942L42.4584 46.0187L38.5911 41.647L36.9321 39.7715L35.2731 41.647L31.4058 46.0187L29.7467 47.8942ZM40.7994 47.8942L36.9321 52.2659L33.0648 47.8942L36.9321 43.5224L40.7994 47.8942ZM29.7467 68.7808L31.4058 70.6563L35.2731 75.028L36.9321 76.9035L38.5911 75.028L42.4584 70.6563L44.1175 68.7808L42.4584 66.9054L38.5911 62.5337L36.9321 60.6582L35.2731 62.5337L31.4058 66.9054L29.7467 68.7808ZM40.7994 68.7808L36.9321 73.1526L33.0648 68.7808L36.9321 64.4091L40.7994 68.7808ZM22.1674 60.2129L20.5084 58.3375L22.1674 56.4621L26.0347 52.0903L27.6937 50.2149L29.3528 52.0903L33.2201 56.4621L34.8791 58.3375L33.2201 60.2129L29.3528 64.5847L27.6937 66.4601L26.0347 64.5847L22.1674 60.2129ZM27.6937 62.7093L31.561 58.3375L27.6937 53.9657L23.8264 58.3375L27.6937 62.7093ZM38.9851 58.3375L40.6441 60.2129L44.5114 64.5847L46.1704 66.4601L47.8295 64.5847L51.6968 60.2129L53.3558 58.3375L51.6968 56.4621L47.8295 52.0903L46.1704 50.2149L44.5114 52.0903L40.6441 56.4621L38.9851 58.3375ZM50.0378 58.3375L46.1704 62.7093L42.3031 58.3375L46.1704 53.9657L50.0378 58.3375Z" fill="black" fill-opacity="0.8"/>
<path d="M73.6794 0V113.149H0" stroke="black"/>
</svg>
