<svg width="75" height="118" viewBox="0 0 75 118" fill="none" xmlns="http://www.w3.org/2000/svg">
<rect x="13.5" y="34.5" width="49" height="49" rx="10.5" fill="white" stroke="black" stroke-width="3"/>
<circle cx="45.2124" cy="59.0398" r="6.01111" fill="white" stroke="black" stroke-width="3"/>
<rect x="30.4306" y="44.3658" width="6.72316" height="6.72316" transform="rotate(45 30.4306 44.3658)" fill="#85B6FF" stroke="black" stroke-width="3"/>
<path d="M21.5888 61.0778H55.5666V73.2222C55.5666 75.7075 53.5518 77.7222 51.0666 77.7222H26.0888C23.6035 77.7222 21.5888 75.7075 21.5888 73.2222V61.0778Z" fill="#FFD500" stroke="black" stroke-width="3"/>
<path d="M41.2214 41.799C41.495 40.8269 42.873 40.8269 43.1466 41.799L43.4862 43.0054C43.5827 43.3483 43.8544 43.614 44.1994 43.7029L45.2974 43.9856C46.2982 44.2434 46.2982 45.6647 45.2974 45.9224L44.1994 46.2052C43.8544 46.2941 43.5827 46.5598 43.4862 46.9027L43.1466 48.1091C42.873 49.0811 41.495 49.0811 41.2214 48.1091L40.8818 46.9027C40.7853 46.5598 40.5136 46.2941 40.1686 46.2052L39.0706 45.9224C38.0698 45.6647 38.0698 44.2434 39.0706 43.9856L40.1686 43.7029C40.5136 43.614 40.7853 43.3483 40.8818 43.0054L41.2214 41.799Z" fill="black"/>
<path d="M74 0V117.301H0" stroke="black"/>
</svg>
