<?xml version="1.0" encoding="UTF-8"?>
<svg xmlns="http://www.w3.org/2000/svg" xmlns:xlink="http://www.w3.org/1999/xlink" width="172px" height="110px" viewBox="0 0 200 200" version="1.1">
<g id="surface1">
<path style=" stroke:none;fill-rule:nonzero;fill:rgb(0%,0%,0%);fill-opacity:1;" d="M 138.949219 60.625 L 164.199219 60.625 L 164.199219 66.925781 L 145.273438 66.925781 L 145.273438 92.199219 L 138.949219 92.199219 Z M 138.949219 60.625 "/>
<path style=" stroke:none;fill-rule:nonzero;fill:rgb(0%,0%,0%);fill-opacity:1;" d="M 37.898438 60.625 L 37.898438 50.101562 L 0 50.101562 L 0 102.726562 L 37.898438 102.726562 Z M 31.574219 92.199219 L 25.25 92.199219 L 25.25 66.925781 L 12.625 66.925781 L 12.625 92.199219 L 6.324219 92.199219 L 6.324219 60.625 L 31.601562 60.625 L 31.601562 92.199219 Z M 31.574219 92.199219 "/>
<path style=" stroke:none;fill-rule:nonzero;fill:rgb(0%,0%,0%);fill-opacity:1;" d="M 42.101562 92.199219 L 73.699219 92.199219 L 73.699219 60.625 L 42.101562 60.625 Z M 48.425781 66.925781 L 67.375 66.925781 L 67.375 85.875 L 48.425781 85.875 Z M 48.425781 66.925781 "/>
<path style=" stroke:none;fill-rule:nonzero;fill:rgb(0%,0%,0%);fill-opacity:1;" d="M 193.675781 60.625 L 193.675781 85.898438 L 174.726562 85.898438 L 174.726562 60.625 L 168.398438 60.625 L 168.398438 92.199219 L 193.675781 92.199219 L 193.675781 96.398438 L 42.101562 96.398438 L 42.101562 102.726562 L 200 102.726562 L 200 60.625 Z M 193.675781 60.625 "/>
<path style=" stroke:none;fill-rule:nonzero;fill:rgb(0%,0%,0%);fill-opacity:1;" d="M 69.375 116.425781 L 88.5 116.425781 L 88.5 121.199219 L 74.148438 121.199219 L 74.148438 140.351562 L 69.375 140.351562 Z M 69.375 116.425781 "/>
<path style=" stroke:none;fill-rule:nonzero;fill:rgb(0%,0%,0%);fill-opacity:1;" d="M 91.699219 140.351562 L 115.601562 140.351562 L 115.601562 116.425781 L 91.675781 116.425781 L 91.675781 140.351562 Z M 96.476562 121.199219 L 110.824219 121.199219 L 110.824219 135.550781 L 96.476562 135.550781 Z M 96.476562 121.199219 "/>
<path style=" stroke:none;fill-rule:nonzero;fill:rgb(0%,0%,0%);fill-opacity:1;" d="M 42.351562 116.425781 L 42.351562 149.898438 L 47.125 149.898438 L 47.125 140.351562 L 66.273438 140.351562 L 66.273438 116.425781 Z M 61.5 135.574219 L 47.148438 135.574219 L 47.148438 121.226562 L 61.5 121.226562 Z M 61.5 135.574219 "/>
<path style=" stroke:none;fill-rule:nonzero;fill:rgb(0%,0%,0%);fill-opacity:1;" d="M 176.523438 135.550781 L 163.449219 135.550781 L 163.449219 121.226562 L 182.523438 121.226562 L 182.523438 116.476562 L 158.675781 116.476562 L 158.675781 140.300781 L 182.523438 140.300781 L 182.523438 135.550781 Z M 176.523438 135.550781 "/>
<path style=" stroke:none;fill-rule:nonzero;fill:rgb(0%,0%,0%);fill-opacity:1;" d="M 155.5 130.824219 L 155.5 116.476562 L 131.574219 116.476562 L 131.574219 140.375 L 155.5 140.375 L 155.5 135.601562 L 136.351562 135.601562 L 136.351562 130.824219 Z M 136.351562 121.25 L 150.699219 121.25 L 150.699219 126.023438 L 136.351562 126.023438 Z M 136.351562 121.25 "/>
<path style=" stroke:none;fill-rule:nonzero;fill:rgb(0%,0%,0%);fill-opacity:1;" d="M 195.273438 135.523438 L 195.273438 121.175781 L 200 121.175781 L 200 116.375 L 195.273438 116.375 L 195.273438 108.425781 L 190.5 108.425781 L 190.5 116.375 L 185.699219 116.375 L 185.699219 121.175781 L 190.5 121.175781 L 190.5 140.300781 L 200 140.300781 L 200 135.523438 Z M 195.273438 135.523438 "/>
<path style=" stroke:none;fill-rule:nonzero;fill:rgb(0%,0%,0%);fill-opacity:1;" d="M 123.601562 108.449219 L 128.375 108.449219 L 128.375 113.226562 L 123.601562 113.226562 Z M 123.601562 108.449219 "/>
<path style=" stroke:none;fill-rule:nonzero;fill:rgb(0%,0%,0%);fill-opacity:1;" d="M 123.601562 121.199219 L 123.601562 135.574219 L 118.800781 135.574219 L 118.800781 140.351562 L 128.375 140.351562 L 128.375 118.023438 L 123.601562 118.023438 Z M 123.601562 121.199219 "/>
<path style=" stroke:none;fill-rule:nonzero;fill:rgb(0%,0%,0%);fill-opacity:1;" d="M 123.601562 108.449219 L 128.375 108.449219 L 128.375 113.226562 L 123.601562 113.226562 Z M 123.601562 108.449219 "/>
<path style=" stroke:none;fill-rule:nonzero;fill:rgb(0%,0%,0%);fill-opacity:1;" d="M 90.523438 60.625 L 90.523438 50.101562 L 84.199219 50.101562 L 84.199219 60.625 L 77.875 60.625 L 77.875 66.949219 L 84.199219 66.949219 L 84.199219 92.199219 L 96.851562 92.199219 L 96.851562 85.875 L 90.523438 85.875 L 90.523438 66.925781 L 128.425781 66.925781 L 128.425781 73.25 L 103.148438 73.25 L 103.148438 92.199219 L 134.726562 92.199219 L 134.726562 60.601562 L 90.523438 60.601562 Z M 128.425781 85.875 L 109.476562 85.875 L 109.476562 79.550781 L 128.425781 79.550781 Z M 128.425781 85.875 "/>
</g>
</svg>
