<?xml version="1.0" encoding="UTF-8"?>
<svg xmlns="http://www.w3.org/2000/svg" xmlns:xlink="http://www.w3.org/1999/xlink" width="46px" height="46px" viewBox="0 0 46 46" version="1.1">
<g id="surface1">
<path style=" stroke:none;fill-rule:nonzero;fill:rgb(0%,0%,0%);fill-opacity:1;" d="M 31.957031 13.945312 L 37.765625 13.945312 L 37.765625 15.394531 L 33.414062 15.394531 L 33.414062 21.207031 L 31.957031 21.207031 Z M 31.957031 13.945312 "/>
<path style=" stroke:none;fill-rule:nonzero;fill:rgb(0%,0%,0%);fill-opacity:1;" d="M 8.71875 13.945312 L 8.71875 11.523438 L 0 11.523438 L 0 23.625 L 8.71875 23.625 Z M 7.261719 21.207031 L 5.808594 21.207031 L 5.808594 15.394531 L 2.902344 15.394531 L 2.902344 21.207031 L 1.453125 21.207031 L 1.453125 13.945312 L 7.269531 13.945312 L 7.269531 21.207031 Z M 7.261719 21.207031 "/>
<path style=" stroke:none;fill-rule:nonzero;fill:rgb(0%,0%,0%);fill-opacity:1;" d="M 9.683594 21.207031 L 16.949219 21.207031 L 16.949219 13.945312 L 9.683594 13.945312 Z M 11.136719 15.394531 L 15.496094 15.394531 L 15.496094 19.75 L 11.136719 19.75 Z M 11.136719 15.394531 "/>
<path style=" stroke:none;fill-rule:nonzero;fill:rgb(0%,0%,0%);fill-opacity:1;" d="M 44.546875 13.945312 L 44.546875 19.757812 L 40.1875 19.757812 L 40.1875 13.945312 L 38.730469 13.945312 L 38.730469 21.207031 L 44.546875 21.207031 L 44.546875 22.171875 L 9.683594 22.171875 L 9.683594 23.625 L 46 23.625 L 46 13.945312 Z M 44.546875 13.945312 "/>
<path style=" stroke:none;fill-rule:nonzero;fill:rgb(0%,0%,0%);fill-opacity:1;" d="M 15.957031 26.777344 L 20.355469 26.777344 L 20.355469 27.875 L 17.054688 27.875 L 17.054688 32.28125 L 15.957031 32.28125 Z M 15.957031 26.777344 "/>
<path style=" stroke:none;fill-rule:nonzero;fill:rgb(0%,0%,0%);fill-opacity:1;" d="M 21.089844 32.28125 L 26.589844 32.28125 L 26.589844 26.777344 L 21.085938 26.777344 L 21.085938 32.28125 Z M 22.1875 27.875 L 25.488281 27.875 L 25.488281 31.175781 L 22.1875 31.175781 Z M 22.1875 27.875 "/>
<path style=" stroke:none;fill-rule:nonzero;fill:rgb(0%,0%,0%);fill-opacity:1;" d="M 9.742188 26.777344 L 9.742188 34.476562 L 10.839844 34.476562 L 10.839844 32.28125 L 15.242188 32.28125 L 15.242188 26.777344 Z M 14.144531 31.183594 L 10.84375 31.183594 L 10.84375 27.882812 L 14.144531 27.882812 Z M 14.144531 31.183594 "/>
<path style=" stroke:none;fill-rule:nonzero;fill:rgb(0%,0%,0%);fill-opacity:1;" d="M 40.601562 31.175781 L 37.59375 31.175781 L 37.59375 27.882812 L 41.980469 27.882812 L 41.980469 26.789062 L 36.496094 26.789062 L 36.496094 32.269531 L 41.980469 32.269531 L 41.980469 31.175781 Z M 40.601562 31.175781 "/>
<path style=" stroke:none;fill-rule:nonzero;fill:rgb(0%,0%,0%);fill-opacity:1;" d="M 35.765625 30.089844 L 35.765625 26.789062 L 30.261719 26.789062 L 30.261719 32.285156 L 35.765625 32.285156 L 35.765625 31.1875 L 31.359375 31.1875 L 31.359375 30.089844 Z M 31.359375 27.886719 L 34.660156 27.886719 L 34.660156 28.984375 L 31.359375 28.984375 Z M 31.359375 27.886719 "/>
<path style=" stroke:none;fill-rule:nonzero;fill:rgb(0%,0%,0%);fill-opacity:1;" d="M 44.914062 31.171875 L 44.914062 27.871094 L 46 27.871094 L 46 26.765625 L 44.914062 26.765625 L 44.914062 24.9375 L 43.816406 24.9375 L 43.816406 26.765625 L 42.710938 26.765625 L 42.710938 27.871094 L 43.816406 27.871094 L 43.816406 32.269531 L 46 32.269531 L 46 31.171875 Z M 44.914062 31.171875 "/>
<path style=" stroke:none;fill-rule:nonzero;fill:rgb(0%,0%,0%);fill-opacity:1;" d="M 28.429688 24.945312 L 29.527344 24.945312 L 29.527344 26.042969 L 28.429688 26.042969 Z M 28.429688 24.945312 "/>
<path style=" stroke:none;fill-rule:nonzero;fill:rgb(0%,0%,0%);fill-opacity:1;" d="M 28.429688 27.875 L 28.429688 31.183594 L 27.324219 31.183594 L 27.324219 32.28125 L 29.527344 32.28125 L 29.527344 27.144531 L 28.429688 27.144531 Z M 28.429688 27.875 "/>
<path style=" stroke:none;fill-rule:nonzero;fill:rgb(0%,0%,0%);fill-opacity:1;" d="M 28.429688 24.945312 L 29.527344 24.945312 L 29.527344 26.042969 L 28.429688 26.042969 Z M 28.429688 24.945312 "/>
<path style=" stroke:none;fill-rule:nonzero;fill:rgb(0%,0%,0%);fill-opacity:1;" d="M 20.820312 13.945312 L 20.820312 11.523438 L 19.367188 11.523438 L 19.367188 13.945312 L 17.910156 13.945312 L 17.910156 15.398438 L 19.367188 15.398438 L 19.367188 21.207031 L 22.277344 21.207031 L 22.277344 19.75 L 20.820312 19.75 L 20.820312 15.394531 L 29.539062 15.394531 L 29.539062 16.847656 L 23.722656 16.847656 L 23.722656 21.207031 L 30.988281 21.207031 L 30.988281 13.9375 L 20.820312 13.9375 Z M 29.539062 19.75 L 25.179688 19.75 L 25.179688 18.296875 L 29.539062 18.296875 Z M 29.539062 19.75 "/>
</g>
</svg>
